# xmcd
#
# Track frame offsets:
# 150
# 19276
# 42387
# 61539
# 82549
# 100046
# 120133
# 140288
# 154685
# 175983
# 193122
# 213018
# 235505
# 257305
#
# Disc length: 3706 seconds
#
#
# Revision: 0
# Processed by: cddbd v1.5.1PL0 Copyright (c) Steve Scherf et al.
# Submitted via: FreeRIP 2.52 
#
DISCID=990e780e
DTITLE=Anthony David - 3 Chords and The Truth
DYEAR=2004
DGENRE=Neo Soul
TTITLE0=Yes
TTITLE1=Heartstrings
TTITLE2=Spittin' Game
TTITLE3=Cold Turkey
TTITLE4=50/50 Love
TTITLE5=GA Peach
TTITLE6=Believe Me
TTITLE7=Ain't Enough For Me
TTITLE8=Cheating Man
TTITLE9=Skyline
TTITLE10=Part of My Life
TTITLE11=Krooked Kop
TTITLE12=The Water/The Fire
TTITLE13=GA Peach (Remix)
EXTD=
EXTT0=
EXTT1=
EXTT2=
EXTT3=
EXTT4=
EXTT5=
EXTT6=
EXTT7=
EXTT8=
EXTT9=
EXTT10=
EXTT11=
EXTT12=
EXTT13=
PLAYORDER=
